<mxfile host="app.diagrams.net" modified="2021-07-13T07:16:42.559Z" agent="5.0 (Windows NT 10.0; Win64; x64) AppleWebKit/537.36 (KHTML, like Gecko) Chrome/91.0.4472.114 Safari/537.36" etag="_yoNA_VUurKC9LgSuit-" version="14.8.5" type="github">
  <diagram id="bWm1ufDhVKmg6m5LAtYP" name="Page-1">
    <mxGraphModel dx="1422" dy="2051" grid="1" gridSize="10" guides="1" tooltips="1" connect="1" arrows="1" fold="1" page="1" pageScale="1" pageWidth="827" pageHeight="1169" math="0" shadow="0">
      <root>
        <mxCell id="0" />
        <mxCell id="1" parent="0" />
        <mxCell id="MHAP-V3Fcz_AgT2KCCq9-48" style="edgeStyle=orthogonalEdgeStyle;rounded=0;orthogonalLoop=1;jettySize=auto;html=1;entryX=0.1;entryY=0.5;entryDx=0;entryDy=0;entryPerimeter=0;fontSize=12;" edge="1" parent="1" source="MHAP-V3Fcz_AgT2KCCq9-1" target="MHAP-V3Fcz_AgT2KCCq9-47">
          <mxGeometry relative="1" as="geometry" />
        </mxCell>
        <mxCell id="MHAP-V3Fcz_AgT2KCCq9-54" style="edgeStyle=orthogonalEdgeStyle;rounded=0;orthogonalLoop=1;jettySize=auto;html=1;entryX=0;entryY=0.5;entryDx=0;entryDy=0;fontSize=12;exitX=0.75;exitY=1;exitDx=0;exitDy=0;" edge="1" parent="1" source="MHAP-V3Fcz_AgT2KCCq9-1" target="MHAP-V3Fcz_AgT2KCCq9-5">
          <mxGeometry relative="1" as="geometry" />
        </mxCell>
        <mxCell id="MHAP-V3Fcz_AgT2KCCq9-58" style="edgeStyle=orthogonalEdgeStyle;rounded=0;orthogonalLoop=1;jettySize=auto;html=1;entryX=0;entryY=0.5;entryDx=0;entryDy=0;fontSize=12;exitX=0.5;exitY=1;exitDx=0;exitDy=0;" edge="1" parent="1" source="MHAP-V3Fcz_AgT2KCCq9-1" target="MHAP-V3Fcz_AgT2KCCq9-56">
          <mxGeometry relative="1" as="geometry" />
        </mxCell>
        <mxCell id="MHAP-V3Fcz_AgT2KCCq9-1" value="Contract Product Resource" style="rounded=1;whiteSpace=wrap;html=1;fillColor=#f8cecc;strokeColor=#b85450;" vertex="1" parent="1">
          <mxGeometry x="160" y="-80" width="160" height="40" as="geometry" />
        </mxCell>
        <mxCell id="MHAP-V3Fcz_AgT2KCCq9-38" style="edgeStyle=orthogonalEdgeStyle;rounded=0;orthogonalLoop=1;jettySize=auto;html=1;entryX=0;entryY=0.5;entryDx=0;entryDy=0;fontSize=12;" edge="1" parent="1" source="MHAP-V3Fcz_AgT2KCCq9-4" target="MHAP-V3Fcz_AgT2KCCq9-7">
          <mxGeometry relative="1" as="geometry" />
        </mxCell>
        <mxCell id="MHAP-V3Fcz_AgT2KCCq9-39" value="Trigger" style="edgeLabel;html=1;align=center;verticalAlign=middle;resizable=0;points=[];fontSize=12;" vertex="1" connectable="0" parent="MHAP-V3Fcz_AgT2KCCq9-38">
          <mxGeometry x="-0.1667" relative="1" as="geometry">
            <mxPoint y="-10" as="offset" />
          </mxGeometry>
        </mxCell>
        <mxCell id="MHAP-V3Fcz_AgT2KCCq9-4" value="loadFromAction" style="ellipse;whiteSpace=wrap;html=1;fillColor=#f5f5f5;strokeColor=#666666;fontColor=#333333;" vertex="1" parent="1">
          <mxGeometry x="480" y="-120" width="120" height="40" as="geometry" />
        </mxCell>
        <mxCell id="MHAP-V3Fcz_AgT2KCCq9-5" value="loadFromResource" style="ellipse;whiteSpace=wrap;html=1;fillColor=#f5f5f5;strokeColor=#666666;fontColor=#333333;" vertex="1" parent="1">
          <mxGeometry x="740" y="190" width="120" height="40" as="geometry" />
        </mxCell>
        <mxCell id="MHAP-V3Fcz_AgT2KCCq9-7" value="Full Product Res Resolver" style="rounded=1;whiteSpace=wrap;html=1;fillColor=#dae8fc;strokeColor=#6c8ebf;" vertex="1" parent="1">
          <mxGeometry x="720" y="-120" width="190" height="40" as="geometry" />
        </mxCell>
        <mxCell id="MHAP-V3Fcz_AgT2KCCq9-8" value="Product Location Res Resolver" style="rounded=1;whiteSpace=wrap;html=1;fillColor=#dae8fc;strokeColor=#6c8ebf;" vertex="1" parent="1">
          <mxGeometry x="720" y="-40" width="190" height="40" as="geometry" />
        </mxCell>
        <mxCell id="MHAP-V3Fcz_AgT2KCCq9-11" value="VO to Resources" style="shape=singleArrow;whiteSpace=wrap;html=1;fillColor=#d5e8d4;strokeColor=#82b366;arrowWidth=0.45;arrowSize=0.25;" vertex="1" parent="1">
          <mxGeometry x="920" y="-80" width="160" height="40" as="geometry" />
        </mxCell>
        <mxCell id="MHAP-V3Fcz_AgT2KCCq9-12" value="Containers" style="shape=cylinder3;whiteSpace=wrap;html=1;boundedLbl=1;backgroundOutline=1;size=15;fillColor=#e1d5e7;strokeColor=#9673a6;" vertex="1" parent="1">
          <mxGeometry x="1090" y="-90" width="90" height="60" as="geometry" />
        </mxCell>
        <mxCell id="MHAP-V3Fcz_AgT2KCCq9-55" style="edgeStyle=orthogonalEdgeStyle;rounded=0;orthogonalLoop=1;jettySize=auto;html=1;entryX=0.5;entryY=1;entryDx=0;entryDy=0;fontSize=12;" edge="1" parent="1" source="MHAP-V3Fcz_AgT2KCCq9-29" target="MHAP-V3Fcz_AgT2KCCq9-5">
          <mxGeometry relative="1" as="geometry" />
        </mxCell>
        <mxCell id="MHAP-V3Fcz_AgT2KCCq9-29" value="Proposal Product Resource" style="rounded=1;whiteSpace=wrap;html=1;fillColor=#f8cecc;strokeColor=#b85450;" vertex="1" parent="1">
          <mxGeometry x="720" y="280" width="160" height="40" as="geometry" />
        </mxCell>
        <mxCell id="MHAP-V3Fcz_AgT2KCCq9-31" style="edgeStyle=orthogonalEdgeStyle;rounded=0;orthogonalLoop=1;jettySize=auto;html=1;exitX=0.5;exitY=1;exitDx=0;exitDy=0;fontSize=12;" edge="1" parent="1" source="MHAP-V3Fcz_AgT2KCCq9-7" target="MHAP-V3Fcz_AgT2KCCq9-7">
          <mxGeometry relative="1" as="geometry" />
        </mxCell>
        <mxCell id="MHAP-V3Fcz_AgT2KCCq9-33" style="edgeStyle=orthogonalEdgeStyle;rounded=0;orthogonalLoop=1;jettySize=auto;html=1;entryX=0.5;entryY=0;entryDx=0;entryDy=0;fontSize=12;" edge="1" parent="1" source="MHAP-V3Fcz_AgT2KCCq9-32" target="MHAP-V3Fcz_AgT2KCCq9-4">
          <mxGeometry relative="1" as="geometry" />
        </mxCell>
        <mxCell id="MHAP-V3Fcz_AgT2KCCq9-34" value="Add Selected Items" style="edgeLabel;html=1;align=center;verticalAlign=middle;resizable=0;points=[];fontSize=12;" vertex="1" connectable="0" parent="MHAP-V3Fcz_AgT2KCCq9-33">
          <mxGeometry x="-0.5676" y="-1" relative="1" as="geometry">
            <mxPoint x="61" y="17" as="offset" />
          </mxGeometry>
        </mxCell>
        <mxCell id="MHAP-V3Fcz_AgT2KCCq9-32" value="Item Selection" style="rounded=1;whiteSpace=wrap;html=1;fontSize=12;fillColor=#d5e8d4;strokeColor=#82b366;" vertex="1" parent="1">
          <mxGeometry x="480" y="-240" width="120" height="60" as="geometry" />
        </mxCell>
        <mxCell id="MHAP-V3Fcz_AgT2KCCq9-44" style="edgeStyle=orthogonalEdgeStyle;rounded=0;orthogonalLoop=1;jettySize=auto;html=1;entryX=0;entryY=0.5;entryDx=0;entryDy=0;fontSize=12;" edge="1" parent="1" source="MHAP-V3Fcz_AgT2KCCq9-40" target="MHAP-V3Fcz_AgT2KCCq9-8">
          <mxGeometry relative="1" as="geometry" />
        </mxCell>
        <mxCell id="MHAP-V3Fcz_AgT2KCCq9-45" value="Trigger" style="edgeLabel;html=1;align=center;verticalAlign=middle;resizable=0;points=[];fontSize=12;" vertex="1" connectable="0" parent="MHAP-V3Fcz_AgT2KCCq9-44">
          <mxGeometry x="-0.2" y="1" relative="1" as="geometry">
            <mxPoint x="2" y="-9" as="offset" />
          </mxGeometry>
        </mxCell>
        <mxCell id="MHAP-V3Fcz_AgT2KCCq9-40" value="loadFromAction" style="ellipse;whiteSpace=wrap;html=1;fillColor=#f5f5f5;strokeColor=#666666;fontColor=#333333;" vertex="1" parent="1">
          <mxGeometry x="480" y="-40" width="120" height="40" as="geometry" />
        </mxCell>
        <mxCell id="MHAP-V3Fcz_AgT2KCCq9-42" style="edgeStyle=orthogonalEdgeStyle;rounded=0;orthogonalLoop=1;jettySize=auto;html=1;entryX=0.5;entryY=1;entryDx=0;entryDy=0;fontSize=12;" edge="1" parent="1" source="MHAP-V3Fcz_AgT2KCCq9-41" target="MHAP-V3Fcz_AgT2KCCq9-40">
          <mxGeometry relative="1" as="geometry" />
        </mxCell>
        <mxCell id="MHAP-V3Fcz_AgT2KCCq9-43" value="Init Locations &lt;br&gt;For All Items QD" style="edgeLabel;html=1;align=center;verticalAlign=middle;resizable=0;points=[];fontSize=12;" vertex="1" connectable="0" parent="MHAP-V3Fcz_AgT2KCCq9-42">
          <mxGeometry x="-0.26" y="1" relative="1" as="geometry">
            <mxPoint x="51" y="-8" as="offset" />
          </mxGeometry>
        </mxCell>
        <mxCell id="MHAP-V3Fcz_AgT2KCCq9-41" value="Location Selection" style="rounded=1;whiteSpace=wrap;html=1;fontSize=12;fillColor=#d5e8d4;strokeColor=#82b366;" vertex="1" parent="1">
          <mxGeometry x="480" y="60" width="120" height="60" as="geometry" />
        </mxCell>
        <mxCell id="MHAP-V3Fcz_AgT2KCCq9-47" value="" style="shape=curlyBracket;whiteSpace=wrap;html=1;rounded=1;fontSize=12;" vertex="1" parent="1">
          <mxGeometry x="450" y="-120" width="20" height="120" as="geometry" />
        </mxCell>
        <mxCell id="MHAP-V3Fcz_AgT2KCCq9-51" value="Containers" style="shape=cylinder3;whiteSpace=wrap;html=1;boundedLbl=1;backgroundOutline=1;size=15;fillColor=#e1d5e7;strokeColor=#9673a6;" vertex="1" parent="1">
          <mxGeometry x="1040" y="180" width="90" height="60" as="geometry" />
        </mxCell>
        <mxCell id="MHAP-V3Fcz_AgT2KCCq9-53" value="Resource to Resource" style="shape=singleArrow;whiteSpace=wrap;html=1;fillColor=#d5e8d4;strokeColor=#82b366;arrowWidth=0.45;arrowSize=0.25;" vertex="1" parent="1">
          <mxGeometry x="870" y="190" width="160" height="40" as="geometry" />
        </mxCell>
        <mxCell id="MHAP-V3Fcz_AgT2KCCq9-57" style="edgeStyle=orthogonalEdgeStyle;rounded=0;orthogonalLoop=1;jettySize=auto;html=1;entryX=0;entryY=0.5;entryDx=0;entryDy=0;fontSize=12;" edge="1" parent="1" source="MHAP-V3Fcz_AgT2KCCq9-56" target="MHAP-V3Fcz_AgT2KCCq9-29">
          <mxGeometry relative="1" as="geometry" />
        </mxCell>
        <mxCell id="MHAP-V3Fcz_AgT2KCCq9-56" value="appendToParentResource" style="ellipse;whiteSpace=wrap;html=1;fillColor=#f5f5f5;strokeColor=#666666;fontColor=#333333;" vertex="1" parent="1">
          <mxGeometry x="480" y="280" width="160" height="40" as="geometry" />
        </mxCell>
        <mxCell id="MHAP-V3Fcz_AgT2KCCq9-60" style="edgeStyle=orthogonalEdgeStyle;rounded=0;orthogonalLoop=1;jettySize=auto;html=1;entryX=0.5;entryY=1;entryDx=0;entryDy=0;fontSize=12;" edge="1" parent="1" source="MHAP-V3Fcz_AgT2KCCq9-59" target="MHAP-V3Fcz_AgT2KCCq9-56">
          <mxGeometry relative="1" as="geometry" />
        </mxCell>
        <mxCell id="MHAP-V3Fcz_AgT2KCCq9-61" value="Add to Proposal" style="edgeLabel;html=1;align=center;verticalAlign=middle;resizable=0;points=[];fontSize=12;" vertex="1" connectable="0" parent="MHAP-V3Fcz_AgT2KCCq9-60">
          <mxGeometry x="0.2667" y="-1" relative="1" as="geometry">
            <mxPoint x="49" y="5" as="offset" />
          </mxGeometry>
        </mxCell>
        <mxCell id="MHAP-V3Fcz_AgT2KCCq9-59" value="Exception" style="rounded=1;whiteSpace=wrap;html=1;fontSize=12;fillColor=#d5e8d4;strokeColor=#82b366;" vertex="1" parent="1">
          <mxGeometry x="500" y="360" width="120" height="60" as="geometry" />
        </mxCell>
      </root>
    </mxGraphModel>
  </diagram>
</mxfile>
